<svg width="22" height="24" viewBox="0 0 22 24" fill="none" xmlns="http://www.w3.org/2000/svg">
<path d="M2.49756 3.25L4.33688 3.61L5.18845 15.083C5.25654 16.02 5.94894 16.739 6.78017 16.736H16.4269C17.2201 16.738 17.893 16.078 18.0053 15.19L18.8445 8.632C18.9383 7.899 18.4882 7.219 17.8409 7.113C17.7843 7.104 4.63223 7.099 4.63223 7.099" stroke="white" stroke-width="1.5" stroke-linecap="round" stroke-linejoin="round"/>
<path d="M12.5564 10.7949H15.0085" stroke="white" stroke-width="1.5" stroke-linecap="round" stroke-linejoin="round"/>
<path fill-rule="evenodd" clip-rule="evenodd" d="M6.39219 20.2026C6.65836 20.2026 6.87324 20.4466 6.87324 20.7466C6.87324 21.0476 6.65836 21.2916 6.39219 21.2916C6.12602 21.2916 5.91113 21.0476 5.91113 20.7466C5.91113 20.4466 6.12602 20.2026 6.39219 20.2026Z" fill="white" stroke="white" stroke-width="1.5" stroke-linecap="round" stroke-linejoin="round"/>
<path fill-rule="evenodd" clip-rule="evenodd" d="M16.3673 20.2026C16.6335 20.2026 16.8492 20.4466 16.8492 20.7466C16.8492 21.0476 16.6335 21.2916 16.3673 21.2916C16.1011 21.2916 15.8862 21.0476 15.8862 20.7466C15.8862 20.4466 16.1011 20.2026 16.3673 20.2026Z" fill="white" stroke="white" stroke-width="1.5" stroke-linecap="round" stroke-linejoin="round"/>
</svg>
