<svg width="12" height="12" viewBox="0 0 12 12" fill="none" xmlns="http://www.w3.org/2000/svg">
<path fill-rule="evenodd" clip-rule="evenodd" d="M6 12C2.688 12 0 9.318 0 6C0 2.688 2.688 0 6 0C9.318 0 12 2.688 12 6C12 9.318 9.318 12 6 12ZM7.91401 8.22603C7.98601 8.26803 8.06401 8.29203 8.14802 8.29203C8.29801 8.29203 8.44802 8.21403 8.53201 8.07003C8.65802 7.86003 8.59201 7.58403 8.37601 7.45203L6.24002 6.18003V3.40803C6.24002 3.15603 6.03602 2.95803 5.79001 2.95803C5.54401 2.95803 5.34001 3.15603 5.34001 3.40803V6.43803C5.34001 6.59403 5.42402 6.73803 5.56202 6.82203L7.91401 8.22603Z" fill="#969696"/>
</svg>
