<svg width="24" height="25" viewBox="0 0 24 25" fill="none" xmlns="http://www.w3.org/2000/svg">
<path d="M12.0995 19.1857L11.9995 19.2857L11.8895 19.1857C7.13951 14.8757 3.99951 12.0257 3.99951 9.13574C3.99951 7.13574 5.49951 5.63574 7.49951 5.63574C9.03951 5.63574 10.5395 6.63574 11.0695 7.99574H12.9295C13.4595 6.63574 14.9595 5.63574 16.4995 5.63574C18.4995 5.63574 19.9995 7.13574 19.9995 9.13574C19.9995 12.0257 16.8595 14.8757 12.0995 19.1857ZM16.4995 3.63574C14.7595 3.63574 13.0895 4.44574 11.9995 5.71574C10.9095 4.44574 9.23951 3.63574 7.49951 3.63574C4.41951 3.63574 1.99951 6.04574 1.99951 9.13574C1.99951 12.9057 5.39951 15.9957 10.5495 20.6657L11.9995 21.9857L13.4495 20.6657C18.5995 15.9957 21.9995 12.9057 21.9995 9.13574C21.9995 6.04574 19.5795 3.63574 16.4995 3.63574Z" fill="black"/>
</svg>
