<svg width="12" height="14" viewBox="0 0 12 14" fill="none" xmlns="http://www.w3.org/2000/svg">
<path fill-rule="evenodd" clip-rule="evenodd" d="M0.333374 5.87842C0.333374 2.81185 2.89596 0.333252 5.99567 0.333252C9.10412 0.333252 11.6667 2.81185 11.6667 5.87842C11.6667 7.42371 11.1047 8.85834 10.1797 10.0743C9.15924 11.4156 7.90148 12.5842 6.48574 13.5015C6.16172 13.7135 5.86929 13.7295 5.51367 13.5015C4.08986 12.5842 2.8321 11.4156 1.82037 10.0743C0.894696 8.85834 0.333374 7.42371 0.333374 5.87842ZM4.12953 6.05109C4.12953 7.07839 4.96781 7.88637 5.99567 7.88637C7.0242 7.88637 7.87055 7.07839 7.87055 6.05109C7.87055 5.03178 7.0242 4.18447 5.99567 4.18447C4.96781 4.18447 4.12953 5.03178 4.12953 6.05109Z" fill="#969696"/>
</svg>
