<svg width="22" height="24" viewBox="0 0 22 24" fill="none" xmlns="http://www.w3.org/2000/svg">
<path fill-rule="evenodd" clip-rule="evenodd" d="M11.5879 4.17701L13.2039 7.82776C13.3622 8.18616 13.6679 8.43467 14.0224 8.49218L17.6374 9.08062C18.5306 9.22644 18.886 10.4505 18.2396 11.1519L15.6255 13.9924C15.3686 14.2718 15.2517 14.6733 15.3124 15.0676L15.9294 19.0778C16.0813 20.0698 15.1476 20.8267 14.3493 20.3574L11.1183 18.4627C10.8016 18.2768 10.4222 18.2768 10.1045 18.4627L6.87355 20.3574C6.07523 20.8267 5.14157 20.0698 5.29442 19.0778L5.91042 15.0676C5.97119 14.6733 5.85425 14.2718 5.59735 13.9924L2.98327 11.1519C2.33689 10.4505 2.69231 9.22644 3.58546 9.08062L7.20042 8.49218C7.55492 8.43467 7.86154 8.18616 8.01991 7.82776L9.63495 4.17701C10.0346 3.27433 11.1883 3.27433 11.5879 4.17701Z" stroke="white" stroke-width="1.5" stroke-linecap="round" stroke-linejoin="round"/>
</svg>
