<svg aria-hidden="true" xmlns="http://www.w3.org/2000/svg" xmlns:xlink="http://www.w3.org/1999/xlink"><symbol viewBox="0 0 18 19" id="arrow" xmlns="http://www.w3.org/2000/svg">
<path d="M11.6246 14.8855L6.37457 9.63553L11.6246 4.38553" stroke-width="1.5" stroke-linecap="round" stroke-linejoin="round"/>
</symbol><symbol viewBox="0 0 22 24" id="cart" xmlns="http://www.w3.org/2000/svg">
<path d="M2.49756 3.25L4.33688 3.61L5.18845 15.083C5.25654 16.02 5.94894 16.739 6.78017 16.736H16.4269C17.2201 16.738 17.893 16.078 18.0053 15.19L18.8445 8.632C18.9383 7.899 18.4882 7.219 17.8409 7.113C17.7843 7.104 4.63223 7.099 4.63223 7.099" stroke-width="1.5" stroke-linecap="round" stroke-linejoin="round"/>
<path d="M12.5564 10.7949H15.0085" stroke-width="1.5" stroke-linecap="round" stroke-linejoin="round"/>
<path fill-rule="evenodd" clip-rule="evenodd" d="M6.39219 20.2026C6.65836 20.2026 6.87324 20.4466 6.87324 20.7466C6.87324 21.0476 6.65836 21.2916 6.39219 21.2916C6.12602 21.2916 5.91113 21.0476 5.91113 20.7466C5.91113 20.4466 6.12602 20.2026 6.39219 20.2026Z" stroke-width="1.5" stroke-linecap="round" stroke-linejoin="round"/>
<path fill-rule="evenodd" clip-rule="evenodd" d="M16.3673 20.2026C16.6335 20.2026 16.8492 20.4466 16.8492 20.7466C16.8492 21.0476 16.6335 21.2916 16.3673 21.2916C16.1011 21.2916 15.8862 21.0476 15.8862 20.7466C15.8862 20.4466 16.1011 20.2026 16.3673 20.2026Z" stroke-width="1.5" stroke-linecap="round" stroke-linejoin="round"/>
</symbol><symbol viewBox="0 0 12 12" id="clock" xmlns="http://www.w3.org/2000/svg">
<path fill-rule="evenodd" clip-rule="evenodd" d="M6 12C2.688 12 0 9.318 0 6C0 2.688 2.688 0 6 0C9.318 0 12 2.688 12 6C12 9.318 9.318 12 6 12ZM7.91401 8.22603C7.98601 8.26803 8.06401 8.29203 8.14802 8.29203C8.29801 8.29203 8.44802 8.21403 8.53201 8.07003C8.65802 7.86003 8.59201 7.58403 8.37601 7.45203L6.24002 6.18003V3.40803C6.24002 3.15603 6.03602 2.95803 5.79001 2.95803C5.54401 2.95803 5.34001 3.15603 5.34001 3.40803V6.43803C5.34001 6.59403 5.42402 6.73803 5.56202 6.82203L7.91401 8.22603Z"/>
</symbol><symbol viewBox="0 0 24 25" id="heart" xmlns="http://www.w3.org/2000/svg">
<path d="M12.0995 19.1857L11.9995 19.2857L11.8895 19.1857C7.13951 14.8757 3.99951 12.0257 3.99951 9.13574C3.99951 7.13574 5.49951 5.63574 7.49951 5.63574C9.03951 5.63574 10.5395 6.63574 11.0695 7.99574H12.9295C13.4595 6.63574 14.9595 5.63574 16.4995 5.63574C18.4995 5.63574 19.9995 7.13574 19.9995 9.13574C19.9995 12.0257 16.8595 14.8757 12.0995 19.1857ZM16.4995 3.63574C14.7595 3.63574 13.0895 4.44574 11.9995 5.71574C10.9095 4.44574 9.23951 3.63574 7.49951 3.63574C4.41951 3.63574 1.99951 6.04574 1.99951 9.13574C1.99951 12.9057 5.39951 15.9957 10.5495 20.6657L11.9995 21.9857L13.4495 20.6657C18.5995 15.9957 21.9995 12.9057 21.9995 9.13574C21.9995 6.04574 19.5795 3.63574 16.4995 3.63574Z"/>
</symbol><symbol viewBox="0 0 12 14" id="map" xmlns="http://www.w3.org/2000/svg">
<path fill-rule="evenodd" clip-rule="evenodd" d="M0.333374 5.87842C0.333374 2.81185 2.89596 0.333252 5.99567 0.333252C9.10412 0.333252 11.6667 2.81185 11.6667 5.87842C11.6667 7.42371 11.1047 8.85834 10.1797 10.0743C9.15924 11.4156 7.90148 12.5842 6.48574 13.5015C6.16172 13.7135 5.86929 13.7295 5.51367 13.5015C4.08986 12.5842 2.8321 11.4156 1.82037 10.0743C0.894696 8.85834 0.333374 7.42371 0.333374 5.87842ZM4.12953 6.05109C4.12953 7.07839 4.96781 7.88637 5.99567 7.88637C7.0242 7.88637 7.87055 7.07839 7.87055 6.05109C7.87055 5.03178 7.0242 4.18447 5.99567 4.18447C4.96781 4.18447 4.12953 5.03178 4.12953 6.05109Z"/>
</symbol><symbol viewBox="0 0 12 12" id="phone" xmlns="http://www.w3.org/2000/svg">
<path fill-rule="evenodd" clip-rule="evenodd" d="M5.38735 6.61519C7.76681 8.99398 8.3066 6.24198 9.82161 7.75593C11.2822 9.21611 12.1217 9.50866 10.2711 11.3587C10.0393 11.545 8.56657 13.7861 3.39082 8.61181C-1.78558 3.43685 0.454279 1.96259 0.640614 1.73086C2.49564 -0.124291 2.78315 0.720064 4.24373 2.18024C5.75874 3.69483 3.0079 4.2364 5.38735 6.61519Z"/>
</symbol><symbol viewBox="0 0 24 24" id="plate" xmlns="http://www.w3.org/2000/svg">
<path fill-rule="evenodd" clip-rule="evenodd" d="M3 6.5C3 3.87479 3.02811 3 6.5 3C9.97189 3 10 3.87479 10 6.5C10 9.12521 10.0111 10 6.5 10C2.98893 10 3 9.12521 3 6.5Z" stroke-width="1.5" stroke-linecap="round" stroke-linejoin="round"/>
<path fill-rule="evenodd" clip-rule="evenodd" d="M14 6.5C14 3.87479 14.0281 3 17.5 3C20.9719 3 21 3.87479 21 6.5C21 9.12521 21.0111 10 17.5 10C13.9889 10 14 9.12521 14 6.5Z" stroke-width="1.5" stroke-linecap="round" stroke-linejoin="round"/>
<path fill-rule="evenodd" clip-rule="evenodd" d="M3 17.5C3 14.8748 3.02811 14 6.5 14C9.97189 14 10 14.8748 10 17.5C10 20.1252 10.0111 21 6.5 21C2.98893 21 3 20.1252 3 17.5Z" stroke-width="1.5" stroke-linecap="round" stroke-linejoin="round"/>
<path fill-rule="evenodd" clip-rule="evenodd" d="M14 17.5C14 14.8748 14.0281 14 17.5 14C20.9719 14 21 14.8748 21 17.5C21 20.1252 21.0111 21 17.5 21C13.9889 21 14 20.1252 14 17.5Z" stroke-width="1.5" stroke-linecap="round" stroke-linejoin="round"/>
</symbol><symbol viewBox="0 0 22 24" id="profile" xmlns="http://www.w3.org/2000/svg">
<path fill-rule="evenodd" clip-rule="evenodd" d="M10.986 15.3462C7.4407 15.3462 4.41309 15.931 4.41309 18.2729C4.41309 20.6148 7.4215 21.2205 10.986 21.2205C14.5313 21.2205 17.5581 20.6348 17.5581 18.2938C17.5581 15.9529 14.5505 15.3462 10.986 15.3462Z" stroke-width="1.5" stroke-linecap="round" stroke-linejoin="round"/>
<path fill-rule="evenodd" clip-rule="evenodd" d="M10.9859 12.0059C13.3125 12.0059 15.1982 9.94779 15.1982 7.40969C15.1982 4.8716 13.3125 2.81445 10.9859 2.81445C8.65932 2.81445 6.77273 4.8716 6.77273 7.40969C6.76487 9.93922 8.63836 11.9973 10.9562 12.0059H10.9859Z" stroke-width="1.42857" stroke-linecap="round" stroke-linejoin="round"/>
</symbol><symbol viewBox="0 0 18 20" id="req" xmlns="http://www.w3.org/2000/svg">
<path fill-rule="evenodd" clip-rule="evenodd" d="M11.7366 0.761748H5.08465C3.00465 0.753748 1.30065 2.41075 1.25065 4.49075V15.2277C1.20565 17.3297 2.87365 19.0697 4.97465 19.1147C5.01165 19.1147 5.04865 19.1157 5.08465 19.1147H13.0726C15.1626 19.0407 16.8146 17.3187 16.8026 15.2277V6.03775L11.7366 0.761748Z" stroke-width="1.5" stroke-linecap="round" stroke-linejoin="round"/>
<path d="M11.4749 0.75V3.659C11.4749 5.079 12.6239 6.23 14.0439 6.234H16.7979" stroke-width="1.5" stroke-linecap="round" stroke-linejoin="round"/>
<path d="M8.64087 7.90869V13.9497" stroke-width="1.5" stroke-linecap="round" stroke-linejoin="round"/>
<path d="M10.9866 10.2642L8.64163 7.90918L6.29663 10.2642" stroke-width="1.5" stroke-linecap="round" stroke-linejoin="round"/>
</symbol><symbol viewBox="0 0 19 21" id="search" xmlns="http://www.w3.org/2000/svg">
<ellipse cx="9.29565" cy="9.76663" rx="7.86499" ry="8.98856" stroke-width="1.5" stroke-linecap="round" stroke-linejoin="round"/>
<path d="M14.7659 16.4851L17.8494 20" stroke-width="1.5" stroke-linecap="round" stroke-linejoin="round"/>
</symbol><symbol viewBox="0 0 22 24" id="star" xmlns="http://www.w3.org/2000/svg">
<path fill-rule="evenodd" clip-rule="evenodd" d="M11.5879 4.17701L13.2039 7.82776C13.3622 8.18616 13.6679 8.43467 14.0224 8.49218L17.6374 9.08062C18.5306 9.22644 18.886 10.4505 18.2396 11.1519L15.6255 13.9924C15.3686 14.2718 15.2517 14.6733 15.3124 15.0676L15.9294 19.0778C16.0813 20.0698 15.1476 20.8267 14.3493 20.3574L11.1183 18.4627C10.8016 18.2768 10.4222 18.2768 10.1045 18.4627L6.87355 20.3574C6.07523 20.8267 5.14157 20.0698 5.29442 19.0778L5.91042 15.0676C5.97119 14.6733 5.85425 14.2718 5.59735 13.9924L2.98327 11.1519C2.33689 10.4505 2.69231 9.22644 3.58546 9.08062L7.20042 8.49218C7.55492 8.43467 7.86154 8.18616 8.01991 7.82776L9.63495 4.17701C10.0346 3.27433 11.1883 3.27433 11.5879 4.17701Z" stroke-width="1.5" stroke-linecap="round" stroke-linejoin="round"/>
</symbol></svg>