<svg width="135" height="77" viewBox="0 0 135 77" fill="none" xmlns="http://www.w3.org/2000/svg">
<path d="M4.70515 41.2375V71.8938H0.423096V41.2375C0.423096 38.432 2.39231 36.1313 4.70515 36.1313H13.0578V41.2375H4.70515Z" fill="white"/>
<path d="M14.5645 71.8938V36.1313H22.9171C25.23 36.1313 27.1992 38.432 27.1992 41.2375V54.0126C27.1992 56.2065 25.23 58.0024 22.9171 58.0024H18.8465V71.9035H14.5645V71.8938ZM18.8465 41.2375V54.0126H22.9171V41.2375H18.8465Z" fill="white"/>
<path d="M37.9109 36.1313C40.27 36.1313 42.1929 38.5291 42.1929 41.2375V66.7877C42.1929 69.5931 40.2237 71.8938 37.9109 71.8938H33.8403C31.5274 71.8938 29.5582 69.5931 29.5582 66.7877V41.2375C29.5582 38.5291 31.4878 36.1313 33.8403 36.1313H37.9109V36.1313ZM37.9109 66.7877V41.2375H33.8403V66.7877H37.9109V66.7877Z" fill="white"/>
<path d="M49.2703 66.7877H53.7705V58.148H58.0525V66.7877C58.0525 69.5446 56.123 71.8938 53.7705 71.8938H49.2703C46.9112 71.8938 44.9883 69.4961 44.9883 66.7877V41.2375C44.9883 38.5291 46.9178 36.1313 49.2703 36.1313H53.7705C56.1296 36.1313 58.0525 38.4806 58.0525 41.2375V49.8772H53.7705V41.2375H49.2703V66.7877Z" fill="white"/>
<path d="M65.1231 66.7877H69.6233V58.148H73.9053V66.7877C73.9053 69.5446 71.9757 71.8938 69.6233 71.8938H65.1231C62.764 71.8938 60.8411 69.4961 60.8411 66.7877V41.2375C60.8411 38.5291 62.7706 36.1313 65.1231 36.1313H69.6233C71.9823 36.1313 73.9053 38.4806 73.9053 41.2375V49.8772H69.6233V41.2375H65.1231V66.7877Z" fill="white"/>
<path d="M91.6877 41.2375V36.1313H95.9698V41.2375H100.04C102.353 41.2375 104.322 43.5382 104.322 46.3437V62.7979C104.322 64.9433 102.393 66.7877 100.04 66.7877H95.9698V71.8938H91.6877V66.7877H87.6171C85.258 66.7877 83.3351 64.953 83.3351 62.7979V46.3437C83.3351 43.5382 85.3043 41.2375 87.6171 41.2375H91.6877ZM91.6877 62.7979V46.3437H87.6171V62.7979H91.6877ZM100.04 46.3437H95.9698V62.7979H100.04V46.3437Z" fill="white"/>
<path d="M118.893 36.1313V71.8938C118.893 74.6022 116.964 77 114.611 77H106.259V71.8938H114.611V66.7877H110.541C108.228 66.7877 106.259 64.4385 106.259 61.6233V36.1313H110.541V61.6233H114.611V36.1313H118.893Z" fill="white"/>
<path d="M134.317 36.1313V71.8938C134.317 74.6022 132.387 77 130.035 77H121.682V71.8938H130.035V66.7877H125.964C123.651 66.7877 121.682 64.4385 121.682 61.6233V41.2375C121.682 38.5291 123.612 36.1313 125.964 36.1313H134.317V36.1313ZM130.035 61.6233V41.2375H125.964V61.6233H130.035Z" fill="white"/>
<path d="M68.7576 5.47507C68.6387 7.09622 68.7114 8.69796 68.9295 10.29C68.9625 10.5521 69.0484 10.6395 69.207 10.688C69.511 10.7851 69.8149 10.8433 70.1321 10.8433C70.8855 10.8336 71.6388 10.8433 72.3921 10.8433C73.2313 10.8433 74.064 10.7657 74.9032 10.7754C75.0816 10.7754 75.1675 10.7074 75.1873 10.4356C75.2402 9.71725 75.2997 9.0086 75.3658 8.29025C75.3856 8.08639 75.3459 7.91166 75.2799 7.73692C74.8437 6.59143 74.4142 5.42653 73.9318 4.31988C73.6212 3.61123 73.2578 2.96082 72.8613 2.34925C72.6366 1.99978 72.3657 1.83475 72.0287 1.86388C71.3282 1.93183 70.6211 1.98037 69.9141 2.0192C69.7489 2.0289 69.663 2.09686 69.5903 2.32984C69.3656 3.08702 69.1211 3.82479 68.9295 4.60139C68.8568 4.90233 68.7775 5.18384 68.7576 5.47507Z" fill="white"/>
<path d="M50.5391 6.23221C50.7571 6.2225 50.9686 6.23221 51.1867 6.23221C52.1316 6.25162 53.0766 6.20308 54.0149 6.41665C55.4225 6.737 56.8366 6.89232 58.2507 7.09617C58.6538 7.15442 59.0635 7.18354 59.4666 7.23208C59.5723 7.24179 59.6516 7.23208 59.6583 7.03793C59.7045 6.23221 59.7111 5.43619 59.6715 4.64018C59.5459 4.57222 59.4534 4.63047 59.3609 4.64018C58.9446 4.69842 58.5283 4.77608 58.112 4.68871C57.3917 4.5431 56.7507 4.1548 56.3212 3.23259C56.1295 2.82487 55.9313 2.43657 55.7595 2.00944C55.6471 1.73763 55.5282 1.61143 55.3035 1.63085C54.755 1.67939 54.2066 1.66968 53.6581 1.72792C52.951 1.80558 52.2638 2.00944 51.6228 2.48511C51.3056 2.71809 51.0281 3.00931 50.8893 3.5141C50.7439 4.04802 50.5985 4.59164 50.473 5.13526C50.4135 5.39736 50.4069 5.68859 50.3805 5.9604C50.3606 6.17396 50.4201 6.23221 50.5391 6.23221Z" fill="white"/>
<path d="M84.8154 7.81455C84.7493 7.60098 84.6369 7.44566 84.5246 7.29034C83.6986 6.09632 82.8792 4.89259 82.0532 3.69856C81.8681 3.42675 81.7029 3.12582 81.6104 2.75693C81.5642 2.5822 81.584 2.456 81.736 2.42688C81.9739 2.36863 82.1985 2.27156 82.4166 2.12595C82.5818 2.01916 82.7338 1.88326 82.8197 1.63086C82.9783 1.18432 82.9915 0.689233 83.0113 0.19415C83.018 0.019415 82.932 0 82.8461 0C82.747 0 82.6875 0.0485376 82.6942 0.213565C82.7008 0.368885 82.714 0.524206 82.714 0.689233C82.7272 1.43671 82.6545 1.57262 82.1391 1.64057C82.0928 1.65028 82.0466 1.63086 81.9937 1.63086C81.9078 1.24256 82.0399 0.815431 81.8417 0.407716C81.4518 0.970751 81.1082 1.58232 80.5663 1.8056C80.0377 2.02887 79.5024 2.14536 78.9143 2.25214C79.509 3.60149 79.7535 5.00908 79.7007 6.52345C79.6941 6.76614 79.7007 7.01853 79.7073 7.26122C79.7337 8.54261 80.0707 9.52307 80.8967 10.0861C81.0025 10.1638 81.0818 10.1929 81.1875 10.1249C81.4849 9.93079 81.7822 9.76576 82.0796 9.57161C82.377 9.36775 82.6677 9.35804 82.9849 9.49395C83.3484 9.65897 83.725 9.78517 84.0885 9.93079C84.1942 9.96962 84.2933 9.99874 84.3991 9.90166C84.7955 9.51336 85.0136 8.42612 84.8154 7.81455Z" fill="white"/>
<path d="M64.3038 15.8038C64.1717 15.435 64.1386 15.0467 64.1452 14.6292C64.1518 14.173 64.2444 13.7361 64.284 13.2216C63.98 13.3284 63.7157 13.1343 63.4316 13.1246C62.295 13.1052 61.1584 13.1634 60.0284 13.2605C59.6253 13.2896 59.2156 13.309 58.8125 13.4255C58.6076 13.4837 58.4358 13.6002 58.2971 13.8429C57.8808 14.5322 57.3984 15.0952 56.8565 15.5514C56.1296 16.163 55.4424 16.862 54.7485 17.5415C54.689 17.5997 54.6296 17.6677 54.5833 17.7356C54.5503 17.7842 54.5569 17.8715 54.5767 17.9395C54.6031 18.0075 54.6428 18.0172 54.6956 17.988C55.3102 17.658 55.9446 17.7453 56.5724 17.823C56.764 17.8424 56.9556 17.8521 57.1473 17.8618C57.3389 17.8715 57.4843 17.7648 57.6032 17.5221C57.8015 17.1241 57.9799 16.7164 58.0658 16.2213C58.0988 16.0174 58.1451 15.8136 58.2112 15.6291C58.3367 15.2505 58.4755 15.1826 58.7332 15.3573C59.9227 16.1921 61.1848 16.7164 62.4536 17.2211C63.0615 17.4638 63.6827 17.6677 64.3038 17.823C64.403 17.8521 64.5153 17.8715 64.5021 17.658C64.4492 17.0367 64.5087 16.3863 64.3038 15.8038Z" fill="white"/>
<path d="M50.6448 8.12507C51.4709 8.68811 52.0986 9.5812 52.5282 10.7655C52.6405 11.0762 52.7661 11.3771 52.885 11.678C53.1625 12.3867 53.3872 13.1147 53.407 13.9496C53.4136 14.2117 53.5062 14.3088 53.6714 14.3379C54.2331 14.435 54.7947 14.3961 55.3564 14.367C55.4952 14.3573 55.5415 14.2602 55.5349 14.0661C55.5216 13.736 55.515 13.3963 55.5084 13.0662C55.4886 12.1343 55.4688 11.2121 55.6075 10.2898C55.6802 9.82389 55.6802 9.34822 55.6075 8.87255C55.5216 8.30952 55.4093 7.75619 55.3168 7.19315C55.2837 7.00871 55.2309 6.91163 55.0855 6.8728C54.1009 6.64953 53.1229 6.4845 52.1251 6.46509C51.7286 6.46509 51.3387 6.46509 50.9422 6.46509C50.3607 6.46509 50.3805 6.46509 50.3343 7.31935C50.2946 7.75619 50.3937 7.96005 50.6448 8.12507Z" fill="white"/>
<path d="M72.7424 16.9298C73.2908 16.5026 73.8129 15.9979 74.0442 15.0174C74.2622 14.0758 74.6059 13.1924 74.8834 12.2799C75.0023 11.9013 75.1081 11.5033 75.1411 11.0179C74.9891 11.0179 74.8702 11.0179 74.7512 11.0179C73.2446 11.047 71.7379 11.0664 70.2313 11.1053C69.9207 11.115 69.6101 11.0664 69.3062 10.9791C69.2269 10.9597 69.1476 10.8723 69.0616 10.9791C69.1674 11.678 69.326 12.3478 69.4978 13.0274C69.6366 13.5904 69.5705 13.5322 69.967 13.5322C71.3084 13.5419 72.6432 13.5419 73.9847 13.5516C74.0838 13.5516 74.2556 13.4642 74.2622 13.6389C74.2622 13.8913 74.0772 13.7748 73.9781 13.7748C72.6895 13.8234 71.3943 13.804 70.1057 13.7651C69.9802 13.7651 69.8546 13.7651 69.6894 13.7651C69.9207 14.6 70.1322 15.3863 70.3502 16.1629C70.3965 16.3279 70.4427 16.4832 70.4956 16.6386C70.6079 16.9783 70.793 17.1628 71.0441 17.2501C71.6322 17.4346 72.2203 17.3278 72.7424 16.9298Z" fill="white"/>
<path d="M62.7442 6.00896C62.7376 7.2224 62.7442 8.43584 62.7442 9.63957C62.7442 10.2026 62.6914 10.1929 63.1011 10.1832C63.8808 10.1735 64.654 10.1735 65.4337 10.1444C65.6452 10.1347 65.9095 10.2803 66.0483 10.0473C66.1738 9.84343 66.0879 9.47454 66.0879 9.18331C66.1012 8.14461 66.1012 7.10591 66.002 6.08662C65.9161 5.26148 65.8897 4.44605 65.9227 3.62091C65.9293 3.42676 65.936 3.23261 65.9426 3.03846C65.9558 2.46571 66.0153 2.47542 65.5593 2.50454C65.1628 2.52396 64.7729 2.55308 64.3764 2.5725C63.7817 2.61133 63.187 2.65016 62.5592 2.69869C62.5724 2.89284 62.5724 3.02875 62.5922 3.16465C62.7178 4.11599 62.7508 5.05762 62.7442 6.00896Z" fill="white"/>
<path d="M56.0041 14.2506C56.7508 14.0274 57.4843 13.707 58.2178 13.3964C58.2971 13.3673 58.383 13.3381 58.4358 13.2313C58.8389 12.4936 59.2685 11.7752 59.394 10.8045C59.5064 9.9405 59.5592 9.06682 59.6121 8.19314C59.6583 7.38742 59.7046 7.52333 59.2024 7.45537C58.1253 7.30005 57.0415 7.16415 55.9578 7.02824C55.7992 7.00883 55.634 6.94087 55.449 7.01853C55.5217 7.42625 55.5944 7.81455 55.667 8.20285C55.819 8.96975 55.8587 9.74635 55.7529 10.5424C55.5811 11.7752 55.7133 13.0178 55.6935 14.2506C55.819 14.3089 55.9115 14.2798 56.0041 14.2506Z" fill="white"/>
<path d="M69.2533 13.7361C68.6453 13.707 68.0374 13.639 67.4294 13.5808C66.5506 13.5031 65.6783 13.2216 64.7928 13.1828C64.4822 13.173 64.4822 13.1536 64.4227 13.5808C64.3963 13.7652 64.3765 13.9594 64.3501 14.1438C64.2708 14.7068 64.2774 15.2505 64.4888 15.765C64.5549 15.93 64.5747 16.1241 64.5946 16.3183C64.621 16.7163 64.6739 17.124 64.654 17.522C64.6408 17.8132 64.7267 17.8715 64.9051 17.8618C65.48 17.8424 66.0417 17.7065 66.61 17.59C67.2973 17.4444 67.9779 17.2502 68.6718 17.2696C69.2599 17.289 69.8414 17.2308 70.4427 17.0755C70.1057 16.0659 69.8546 15.066 69.5837 14.0758C69.5176 13.8332 69.4317 13.7458 69.2533 13.7361Z" fill="white"/>
<path d="M76.8787 13.4541C76.8787 13.445 76.8787 13.445 76.8787 13.4541C76.8724 13.4541 76.8724 13.4541 76.8724 13.4541H76.8787Z" fill="white"/>
<path d="M80.5928 10.086C80.0444 9.688 79.7602 9.00847 79.6215 8.17363C79.5554 7.77562 79.5223 7.37761 79.5223 6.9699C79.5223 6.47481 79.5422 5.97973 79.5157 5.49435C79.4629 4.42653 79.2382 3.43636 78.8285 2.54327C78.7558 2.37825 78.6765 2.25205 78.5179 2.26176C77.8967 2.30059 77.2756 2.30059 76.6676 2.27146C76.628 2.43649 76.6743 2.54327 76.7007 2.65976C76.8196 3.13543 76.932 3.62081 77.0443 4.09647C77.4672 5.96032 77.5928 7.87269 77.3549 9.80449C77.2227 10.8529 77.0509 11.9013 76.8989 12.94C76.8725 13.105 76.8262 13.2701 76.8791 13.4448C77.4077 12.5905 77.9826 11.8139 78.6038 11.1053C79.0069 10.649 79.4629 10.4355 79.9651 10.3966C80.1567 10.3772 80.3483 10.3869 80.54 10.3675C80.6127 10.3578 80.7118 10.4161 80.7382 10.2413C80.7316 10.2219 80.725 10.2025 80.7184 10.1928C80.6787 10.154 80.6391 10.1151 80.5928 10.086Z" fill="white"/>
<path d="M66.2466 9.68802C66.2532 10.1249 66.2532 10.1346 66.5307 10.1346C67.2708 10.1249 68.0109 10.0763 68.7775 10.5617C68.751 10.319 68.7444 10.2025 68.7312 10.086C68.5528 8.82406 68.5065 7.55237 68.533 6.26127C68.5462 5.63999 68.6123 5.03813 68.7775 4.46538C68.9559 3.83439 69.1409 3.21311 69.3259 2.58213C69.3722 2.42681 69.4515 2.28119 69.4317 2.06763C69.2863 2.08704 69.1475 2.09675 69.0088 2.11616C68.1167 2.21324 67.2312 2.45593 66.3325 2.48505C66.1342 2.49476 66.0946 2.62096 66.0946 2.87335C66.0946 3.94118 66.0351 5.009 66.1541 6.07683C66.2994 7.26115 66.2333 8.48429 66.2466 9.68802Z" fill="white"/>
<path d="M77.2954 8.56197C77.4011 6.39719 76.9848 4.39744 76.4628 2.41711C76.4363 2.32003 76.4165 2.20354 76.3306 2.18413C76.0861 2.12588 75.8746 1.92203 75.5971 1.82495C75.7028 2.20354 75.7689 2.54331 75.7821 2.89278C75.8152 3.71792 75.8152 4.54306 75.7557 5.36819C75.65 6.88257 75.5046 8.39694 75.4187 9.92102C75.346 11.1539 75.1147 12.2897 74.7314 13.3769C74.553 13.8914 74.3878 14.4253 74.2292 14.9495C74.1962 15.0563 74.1301 15.1534 74.1698 15.2796C74.2358 15.3087 74.401 15.0563 74.4473 14.998C74.8702 14.4156 75.3592 13.9885 75.8812 13.6293C76.1522 13.4448 76.4694 13.3186 76.661 13.0177C76.8658 12.6974 76.8328 12.1635 76.8989 11.7169C77.0575 10.6685 77.2425 9.62979 77.2954 8.56197Z" fill="white"/>
<path d="M57.0944 15.037C57.471 14.707 57.7948 14.2799 58.1319 13.6974C57.7222 13.8624 57.3851 13.9983 57.0547 14.1342C55.9776 14.5905 54.8807 14.7846 53.7573 14.6002C53.2485 14.5128 52.7462 14.3672 52.396 13.7459C52.396 13.7362 52.3894 13.7362 52.3894 13.7362C52.2837 13.678 52.2506 13.4547 52.1053 13.4353C52.1846 14.0372 52.1647 14.6293 52.1713 15.2215C52.1779 15.6972 52.1053 16.1049 51.8938 16.4835C51.6361 16.9591 51.4114 17.4736 51.1537 18.0172C51.8541 18.2599 52.515 18.4735 53.189 18.5997C53.3344 18.6288 53.4731 18.5997 53.6185 18.5609C53.7507 18.522 53.863 18.4541 53.9423 18.2696C54.1273 17.8522 54.3851 17.561 54.6758 17.2892C55.482 16.5417 56.275 15.7554 57.0944 15.037Z" fill="white"/>
<path d="M64.1121 12.911C64.4227 12.911 64.7333 12.9304 65.0439 12.9595C65.9756 13.0372 66.8875 13.3187 67.8193 13.3866C68.3413 13.4255 68.8567 13.4643 69.425 13.5031C69.2202 12.6295 69.0153 11.8237 68.8832 10.9986C68.8568 10.8336 68.7708 10.7753 68.6783 10.7365C68.2158 10.5521 67.7598 10.3579 67.2774 10.3773C66.5505 10.4064 65.8236 10.3967 65.0967 10.4064C64.7862 10.4064 64.4756 10.4259 64.165 10.4259C63.9932 10.4259 63.9007 10.4744 63.9073 10.7753C63.9205 11.3869 63.9139 11.9985 63.9073 12.6198C63.9007 12.8236 63.9535 12.9013 64.1121 12.911Z" fill="white"/>
<path d="M73.2711 24.5696C73.0332 24.1036 72.9142 23.5891 72.8415 23.0261C72.7424 22.2495 72.7292 21.4535 72.7556 20.6672C72.7622 20.5507 72.8019 20.4148 72.7358 20.3177C72.6367 20.1624 72.0089 20.0362 71.8768 20.1721C71.553 20.5022 71.2226 20.5798 70.8657 20.2498C70.7071 21.8709 70.7996 23.395 71.0309 24.9191C71.1829 25.9189 71.1631 25.9287 71.8239 26.1519C71.9296 26.1908 72.0354 26.1908 72.1411 26.1908C72.6565 26.1908 73.1719 26.1908 73.6808 26.1908C73.7667 26.1908 73.8658 26.2199 73.9451 26.1616C73.9385 25.9384 73.8526 25.8025 73.7865 25.6568C73.6147 25.288 73.4495 24.9288 73.2711 24.5696Z" fill="white"/>
<path d="M62.3874 6.25174C62.1165 6.27116 61.8323 6.24204 61.568 6.30028C61.0129 6.41677 60.4645 6.59151 59.8631 6.3294C59.8103 7.68845 59.7442 8.96014 59.6318 10.2124C59.6715 10.2415 59.6913 10.2706 59.7111 10.2706C60.6032 10.2512 61.5019 10.2318 62.394 10.2124C62.5328 10.2124 62.5791 10.125 62.5791 9.93089C62.5724 8.79511 62.5724 7.64962 62.5791 6.51384C62.5791 6.30028 62.5196 6.24204 62.3874 6.25174Z" fill="white"/>
<path d="M63.5439 10.4646C63.2201 10.4743 62.8963 10.4646 62.5791 10.4743C61.687 10.4937 60.7883 10.5131 59.8962 10.5326C59.6121 10.5423 59.6055 10.5423 59.5394 10.9888C59.4601 11.5324 59.2751 11.9984 59.0636 12.4449C58.9579 12.6682 58.8455 12.8915 58.72 13.1633C59.9887 12.9885 61.2112 12.9012 62.4404 12.8915C62.8104 12.8915 63.1805 12.8818 63.5505 12.8915C63.6827 12.8915 63.7488 12.8332 63.7422 12.6197C63.7356 11.9887 63.7356 11.3577 63.7422 10.7267C63.7356 10.5131 63.6761 10.4646 63.5439 10.4646Z" fill="white"/>
<path d="M57.5635 20.9294C57.5437 20.8323 57.4974 20.7935 57.4313 20.8032C57.2199 20.8323 56.9952 20.7644 56.7969 20.9197C56.4203 21.2303 56.0238 21.2206 55.6141 21.1333C55.5282 21.1138 55.4357 21.0265 55.3432 21.1138C55.3299 21.2692 55.396 21.3857 55.4291 21.5119C55.733 22.57 56.2154 23.4728 56.6383 24.4241C56.8234 24.8415 57.0216 25.123 57.3851 25.0357C57.4511 25.0163 57.5304 25.026 57.5899 25.0842C57.5965 25.4531 57.4578 25.7832 57.4842 26.1812C58.1516 26.2782 58.786 26.0356 59.427 25.8511C59.4138 25.7637 59.4138 25.7152 59.3939 25.6667C58.7529 24.1038 57.9335 22.7059 57.5635 20.9294Z" fill="white"/>
<path d="M59.8632 5.85366C59.85 6.05752 59.9491 6.12547 60.0614 6.15459C60.2993 6.20313 60.5306 6.25167 60.7751 6.21284C61.3104 6.12547 61.839 5.95074 62.3809 5.99927C62.5395 6.00898 62.5791 5.91191 62.5857 5.68863C62.6056 4.78584 62.4998 3.90245 62.4139 3.01907C62.3875 2.75696 62.3016 2.6793 62.1298 2.68901C61.6408 2.71813 61.1452 2.71813 60.6694 2.55311C60.3125 2.42691 59.9557 2.27159 59.5856 2.12598C59.5724 2.18422 59.5592 2.20364 59.5592 2.21334C59.731 3.41708 59.9226 4.6111 59.8632 5.85366Z" fill="white"/>
<path d="M52.9642 21.8031C52.918 21.5798 52.8188 21.6575 52.7329 21.6963C52.277 21.8808 51.8342 21.8128 51.3849 21.6478C51.3122 21.6187 51.2395 21.5119 51.1404 21.6381C51.1536 22.3953 51.147 23.1622 51.2329 23.9291C51.3122 24.6086 51.5237 24.9387 51.9928 25.0551C52.0655 25.0746 52.1382 25.0551 52.2043 25.1328C52.2439 25.3561 52.2043 25.5794 52.2043 25.8026C52.1977 26.2006 52.2109 26.2686 52.462 26.2298C53.0039 26.1521 53.5457 26.0259 54.1074 25.9191C54.0942 25.8123 54.0942 25.7929 54.0876 25.7832C53.7109 24.463 53.2418 23.1913 52.9642 21.8031Z" fill="white"/>
<path d="M75.4055 7.48444C75.5508 6.0089 75.6764 4.54307 75.6235 3.06753C75.6169 2.87337 75.5905 2.68893 75.5707 2.49478C75.4914 1.86379 75.2799 1.63081 74.8504 1.66964C74.5662 1.69877 74.2755 1.70847 73.9913 1.7376C73.5882 1.76672 73.1917 1.80555 72.7159 1.84438C73.9451 3.46553 74.586 5.56236 75.4055 7.48444Z" fill="white"/>
<path d="M57.9336 4.40717C58.4689 4.5722 59.0041 4.43629 59.5328 4.35863C59.6848 4.33922 59.6451 4.16448 59.6319 4.03829C59.5658 3.52379 59.4733 3.00929 59.4204 2.49479C59.3808 2.07737 59.2354 1.90263 58.9579 1.8541C57.927 1.66965 56.8961 1.63082 55.7992 1.64053C55.9776 2.14532 56.1759 2.51421 56.3477 2.91222C56.7243 3.76648 57.2794 4.20331 57.9336 4.40717Z" fill="white"/>
<path d="M52.6075 13.7361C52.7925 13.9594 52.9841 14.1341 53.2485 14.1827C53.2419 13.6196 53.1758 13.1245 53.0304 12.6683C52.7066 11.649 52.3233 10.6783 51.8608 9.78516C51.4709 9.02797 50.896 8.62996 50.3211 8.1543C50.3078 8.29991 50.3012 8.36786 50.3012 8.43581C50.3343 10.0861 50.1757 11.7461 50.4796 13.3672C50.4863 13.3575 50.5061 13.3381 50.5127 13.309C50.5788 13.0372 50.592 12.7071 50.8695 12.6877C50.962 12.678 50.929 12.5227 50.929 12.4256C50.929 11.9305 50.9224 11.4451 50.9224 10.9501C50.9224 10.6588 50.9224 10.3773 50.9224 10.1249C51.0083 10.057 51.0215 10.1346 51.0347 10.1638C51.5303 11.2801 51.8013 12.5809 52.4489 13.5614C52.4687 13.5614 52.5678 13.6876 52.6075 13.7361Z" fill="white"/>
<path d="M56.5393 20.813C56.7706 20.6577 57.0085 20.5509 57.2662 20.5606C57.4314 20.5703 57.5173 20.483 57.4644 20.2209C57.3719 19.7064 57.438 19.2113 57.5173 18.7162C57.557 18.4444 57.6098 18.1823 57.6693 17.8425C57.4182 18.124 57.1671 18.1143 56.9226 18.0949C56.6847 18.0755 56.4468 18.0561 56.2089 18.0173C55.786 17.9493 55.3697 17.9979 54.96 18.1046C54.6626 18.1823 54.6031 18.3376 54.7022 18.755C54.841 19.3375 54.9864 19.9102 55.1384 20.483C55.1714 20.6092 55.1912 20.7742 55.3036 20.7936C55.7133 20.881 56.1296 21.0848 56.5393 20.813Z" fill="white"/>
<path d="M71.2159 20.1916C71.3877 20.2401 71.5529 20.2013 71.6917 20.0363C71.8899 19.8033 72.108 19.813 72.3393 19.8809C72.445 19.9101 72.5507 19.9392 72.6499 20.0071C72.8151 20.1236 72.8745 20.0169 72.934 19.7936C73.1521 19.017 73.3503 18.221 73.6279 17.4929C73.7865 17.0755 73.7997 16.6969 73.76 16.1436C72.9208 17.3473 71.9626 17.7744 70.8326 17.4347C70.8591 18.1627 70.8657 18.8422 70.8525 19.5218C70.8393 19.9489 70.9318 20.1236 71.2159 20.1916Z" fill="white"/>
<path d="M51.2594 21.3372C51.7748 21.5799 52.2836 21.6381 52.8123 21.4245C52.885 21.3954 52.9378 21.3372 52.951 21.2207C52.9973 20.4052 53.3013 19.7451 53.5722 19.0656C53.5986 18.9977 53.6449 18.9297 53.6053 18.8229C52.7594 18.8909 51.9598 18.4734 51.1272 18.2793C51.1272 19.2306 51.1272 20.1237 51.1272 21.0168C51.1272 21.1624 51.147 21.2886 51.2594 21.3372Z" fill="white"/>
<path d="M50.8563 12.9499C50.7704 12.9305 50.744 13.047 50.7308 13.1537C50.7109 13.2897 50.6911 13.4256 50.6713 13.5615C50.6515 13.6877 50.6052 13.843 50.5259 13.8236C50.255 13.775 50.3211 14.0371 50.3211 14.2507C50.3211 14.4254 50.3211 14.6002 50.3211 14.7749C50.3145 15.0758 50.2682 15.4544 50.2021 15.7748C50.1691 15.8621 50.0303 16.299 49.9907 16.3863C49.9048 16.5708 49.7726 16.7649 49.8387 17.0367C49.8519 17.0562 49.8585 17.0659 49.8717 17.0853C49.918 17.0173 49.9444 16.8426 49.9378 16.8523C49.9378 16.8232 49.951 16.7941 49.9642 16.7746L49.951 16.8038C49.9576 16.7844 49.9642 16.7746 49.9708 16.7552C49.9774 16.7358 49.9774 16.7261 49.9841 16.7067C49.9907 16.6873 49.9907 16.6776 49.9973 16.6582C49.9907 16.5805 50.0634 16.3184 50.1294 16.0951C50.1955 15.998 50.3409 15.7845 50.4532 15.8136C50.5656 15.833 50.6779 15.9398 50.8233 15.8718C50.9356 14.9788 50.9422 14.076 50.9488 13.1635C50.9356 13.0664 50.9224 12.9596 50.8563 12.9499Z" fill="white"/>
<path d="M50.5721 16.1047C50.44 16.0561 50.321 16.0076 50.2483 16.26C50.2087 16.4056 50.2153 16.6677 50.1228 16.7259C50.0964 16.7939 50.0699 16.8716 50.0369 16.9395C50.0369 16.9492 50.0369 16.9492 50.0369 16.9589V16.9492C50.0038 17.0366 49.9708 17.1142 49.9312 17.1822C49.9312 17.1822 49.9378 17.1822 49.9378 17.1919C49.8915 17.3666 49.7329 17.4152 49.7263 17.6579C49.7065 18.6383 49.6536 19.6188 49.7131 20.5992C49.7329 20.9293 49.8386 21.0264 50.0501 20.9487C50.255 20.871 50.3475 20.7254 50.3805 20.4051C50.4202 19.9682 50.4532 19.5314 50.4928 19.1043C50.5788 18.2209 50.658 17.3375 50.7572 16.4541C50.7836 16.2017 50.6911 16.1532 50.5721 16.1047Z" fill="white"/>
<path d="M76.4165 13.5129C75.749 13.9886 75.075 14.4254 74.5331 15.1923C74.4869 15.2506 74.2886 15.503 74.2358 15.5515C73.912 15.8718 73.912 16.3281 73.9516 16.8135C73.9648 16.9785 74.0045 17.0465 74.1366 17.0367C74.3944 17.0173 74.619 16.9105 74.8239 16.6582C75.2865 16.0757 75.7226 15.4544 76.1455 14.8137C76.3041 14.571 76.4231 14.2895 76.542 14.008C76.6147 13.8236 76.6609 13.6294 76.6279 13.3867C76.5486 13.4353 76.4825 13.4644 76.4165 13.5129Z" fill="white"/>
</svg>
